<?xml version="1.0" encoding="UTF-8" standalone="no"?>
<!DOCTYPE svg PUBLIC "-//W3C//DTD SVG 1.1//EN"
 "http://www.w3.org/Graphics/SVG/1.1/DTD/svg11.dtd">
<!-- Generated by graphviz version 2.40.1 (20161225.0304)
 -->
<!-- Title: dependencies Pages: 1 -->
<svg width="1552pt" height="284pt"
 viewBox="0.00 0.00 1552.00 284.00" xmlns="http://www.w3.org/2000/svg" xmlns:xlink="http://www.w3.org/1999/xlink">
<g id="graph0" class="graph" transform="scale(1 1) rotate(0) translate(4 280)">
<title>dependencies</title>
<polygon fill="#ffffff" stroke="transparent" points="-4,4 -4,-280 1548,-280 1548,4 -4,4"/>
<text text-anchor="start" x="751.0091" y="-42.4" font-family="sans-serif" font-weight="bold" font-size="14.00" fill="#000000">Legend</text>
<polygon fill="#ffffb3" stroke="transparent" points="538,-10 538,-30 558,-30 558,-10 538,-10"/>
<text text-anchor="start" x="561.629" y="-15.4" font-family="sans-serif" font-size="14.00" fill="#000000"> &#160;Declarations</text>
<polygon fill="#8dd3c7" stroke="transparent" points="651,-10 651,-30 671,-30 671,-10 651,-10"/>
<text text-anchor="start" x="674.7251" y="-15.4" font-family="sans-serif" font-size="14.00" fill="#000000"> &#160;Module</text>
<polygon fill="#80b1d3" stroke="transparent" points="737,-10 737,-30 757,-30 757,-10 737,-10"/>
<text text-anchor="start" x="760.7812" y="-15.4" font-family="sans-serif" font-size="14.00" fill="#000000"> &#160;Bootstrap</text>
<polygon fill="#fdb462" stroke="transparent" points="834,-10 834,-30 854,-30 854,-10 834,-10"/>
<text text-anchor="start" x="857.6732" y="-15.4" font-family="sans-serif" font-size="14.00" fill="#000000"> &#160;Providers</text>
<polygon fill="#fb8072" stroke="transparent" points="930,-10 930,-30 950,-30 950,-10 930,-10"/>
<text text-anchor="start" x="953.7258" y="-15.4" font-family="sans-serif" font-size="14.00" fill="#000000"> &#160;Exports</text>
<g id="clust1" class="cluster">
<title>cluster_AppModule</title>
<polygon fill="none" stroke="#000000" stroke-dasharray="1,5" points="8,-70 8,-268 1536,-268 1536,-70 8,-70"/>
</g>
<g id="clust2" class="cluster">
<title>cluster_AppModule_declarations</title>
<polygon fill="none" stroke="#000000" points="168,-78 168,-130 1528,-130 1528,-78 168,-78"/>
</g>
<g id="clust12" class="cluster">
<title>cluster_AppModule_imports</title>
<polygon fill="none" stroke="#000000" points="16,-78 16,-130 160,-130 160,-78 16,-78"/>
</g>
<g id="clust14" class="cluster">
<title>cluster_AppModule_bootstrap</title>
<polygon fill="none" stroke="#000000" points="678,-208 678,-260 802,-260 802,-208 678,-208"/>
</g>
<!-- AppComponent -->
<g id="node1" class="node">
<title>AppComponent</title>
<polygon fill="#ffffb3" stroke="#000000" points="1519.9399,-122 1414.0601,-122 1414.0601,-86 1519.9399,-86 1519.9399,-122"/>
<text text-anchor="middle" x="1467" y="-99.8" font-family="Times,serif" font-size="14.00" fill="#000000">AppComponent</text>
</g>
<!-- AppModule -->
<g id="node10" class="node">
<title>AppModule</title>
<polygon fill="#8dd3c7" stroke="#000000" points="781.6571,-187 778.6571,-191 757.6571,-191 754.6571,-187 698.3429,-187 698.3429,-151 781.6571,-151 781.6571,-187"/>
<text text-anchor="middle" x="740" y="-164.8" font-family="Times,serif" font-size="14.00" fill="#000000">AppModule</text>
</g>
<!-- AppComponent&#45;&gt;AppModule -->
<g id="edge1" class="edge">
<title>AppComponent&#45;&gt;AppModule</title>
<path fill="none" stroke="#000000" d="M1467,-122.0109C1467,-144.4852 1467,-180 1467,-180 1467,-180 791.6978,-180 791.6978,-180"/>
<polygon fill="#000000" stroke="#000000" points="791.6979,-176.5001 781.6978,-180 791.6978,-183.5001 791.6979,-176.5001"/>
</g>
<!-- BlockButtonDirective -->
<g id="node2" class="node">
<title>BlockButtonDirective</title>
<polygon fill="#ffffb3" stroke="#000000" points="1395.6429,-122 1256.3571,-122 1256.3571,-86 1395.6429,-86 1395.6429,-122"/>
<text text-anchor="middle" x="1326" y="-99.8" font-family="Times,serif" font-size="14.00" fill="#000000">BlockButtonDirective</text>
</g>
<!-- BlockButtonDirective&#45;&gt;AppModule -->
<g id="edge2" class="edge">
<title>BlockButtonDirective&#45;&gt;AppModule</title>
<path fill="none" stroke="#000000" d="M1326,-122.1289C1326,-142.5724 1326,-173 1326,-173 1326,-173 791.6739,-173 791.6739,-173"/>
<polygon fill="#000000" stroke="#000000" points="791.6739,-169.5001 781.6739,-173 791.6739,-176.5001 791.6739,-169.5001"/>
</g>
<!-- BlurredSurfaceComponent -->
<g id="node3" class="node">
<title>BlurredSurfaceComponent</title>
<polygon fill="#ffffb3" stroke="#000000" points="1238.3431,-122 1071.6569,-122 1071.6569,-86 1238.3431,-86 1238.3431,-122"/>
<text text-anchor="middle" x="1155" y="-99.8" font-family="Times,serif" font-size="14.00" fill="#000000">BlurredSurfaceComponent</text>
</g>
<!-- BlurredSurfaceComponent&#45;&gt;AppModule -->
<g id="edge3" class="edge">
<title>BlurredSurfaceComponent&#45;&gt;AppModule</title>
<path fill="none" stroke="#000000" d="M1155,-122.2667C1155,-140.5552 1155,-166 1155,-166 1155,-166 791.6919,-166 791.6919,-166"/>
<polygon fill="#000000" stroke="#000000" points="791.6919,-162.5001 781.6919,-166 791.6919,-169.5001 791.6919,-162.5001"/>
</g>
<!-- DisplayScoreDirective -->
<g id="node4" class="node">
<title>DisplayScoreDirective</title>
<polygon fill="#ffffb3" stroke="#000000" points="1053.5031,-122 910.4969,-122 910.4969,-86 1053.5031,-86 1053.5031,-122"/>
<text text-anchor="middle" x="982" y="-99.8" font-family="Times,serif" font-size="14.00" fill="#000000">DisplayScoreDirective</text>
</g>
<!-- DisplayScoreDirective&#45;&gt;AppModule -->
<g id="edge4" class="edge">
<title>DisplayScoreDirective&#45;&gt;AppModule</title>
<path fill="none" stroke="#000000" d="M982,-122.0091C982,-138.0494 982,-159 982,-159 982,-159 791.8769,-159 791.8769,-159"/>
<polygon fill="#000000" stroke="#000000" points="791.8769,-155.5001 781.8769,-159 791.8769,-162.5001 791.8769,-155.5001"/>
</g>
<!-- IntroAnimationDirective -->
<g id="node5" class="node">
<title>IntroAnimationDirective</title>
<polygon fill="#ffffb3" stroke="#000000" points="892.6783,-122 737.3217,-122 737.3217,-86 892.6783,-86 892.6783,-122"/>
<text text-anchor="middle" x="815" y="-99.8" font-family="Times,serif" font-size="14.00" fill="#000000">IntroAnimationDirective</text>
</g>
<!-- IntroAnimationDirective&#45;&gt;AppModule -->
<g id="edge5" class="edge">
<title>IntroAnimationDirective&#45;&gt;AppModule</title>
<path fill="none" stroke="#000000" d="M759.6196,-122.1061C759.6196,-122.1061 759.6196,-140.991 759.6196,-140.991"/>
<polygon fill="#000000" stroke="#000000" points="756.1196,-140.9909 759.6196,-150.991 763.1196,-140.991 756.1196,-140.9909"/>
</g>
<!-- IntroComponent -->
<g id="node6" class="node">
<title>IntroComponent</title>
<polygon fill="#ffffb3" stroke="#000000" points="719.0452,-122 610.9548,-122 610.9548,-86 719.0452,-86 719.0452,-122"/>
<text text-anchor="middle" x="665" y="-99.8" font-family="Times,serif" font-size="14.00" fill="#000000">IntroComponent</text>
</g>
<!-- IntroComponent&#45;&gt;AppModule -->
<g id="edge6" class="edge">
<title>IntroComponent&#45;&gt;AppModule</title>
<path fill="none" stroke="#000000" d="M708.722,-122.1061C708.722,-122.1061 708.722,-140.991 708.722,-140.991"/>
<polygon fill="#000000" stroke="#000000" points="705.222,-140.9909 708.722,-150.991 712.222,-140.991 705.222,-140.9909"/>
</g>
<!-- QuestionsComponent -->
<g id="node7" class="node">
<title>QuestionsComponent</title>
<polygon fill="#ffffb3" stroke="#000000" points="592.8244,-122 455.1756,-122 455.1756,-86 592.8244,-86 592.8244,-122"/>
<text text-anchor="middle" x="524" y="-99.8" font-family="Times,serif" font-size="14.00" fill="#000000">QuestionsComponent</text>
</g>
<!-- QuestionsComponent&#45;&gt;AppModule -->
<g id="edge7" class="edge">
<title>QuestionsComponent&#45;&gt;AppModule</title>
<path fill="none" stroke="#000000" d="M524,-122.0091C524,-138.0494 524,-159 524,-159 524,-159 688.0969,-159 688.0969,-159"/>
<polygon fill="#000000" stroke="#000000" points="688.0969,-162.5001 698.0969,-159 688.0969,-155.5001 688.0969,-162.5001"/>
</g>
<!-- ResultsComponent -->
<g id="node8" class="node">
<title>ResultsComponent</title>
<polygon fill="#ffffb3" stroke="#000000" points="437.0548,-122 314.9452,-122 314.9452,-86 437.0548,-86 437.0548,-122"/>
<text text-anchor="middle" x="376" y="-99.8" font-family="Times,serif" font-size="14.00" fill="#000000">ResultsComponent</text>
</g>
<!-- ResultsComponent&#45;&gt;AppModule -->
<g id="edge8" class="edge">
<title>ResultsComponent&#45;&gt;AppModule</title>
<path fill="none" stroke="#000000" d="M376,-122.2667C376,-140.5552 376,-166 376,-166 376,-166 688.2446,-166 688.2446,-166"/>
<polygon fill="#000000" stroke="#000000" points="688.2446,-169.5001 698.2446,-166 688.2445,-162.5001 688.2446,-169.5001"/>
</g>
<!-- TrackBarDirective -->
<g id="node9" class="node">
<title>TrackBarDirective</title>
<polygon fill="#ffffb3" stroke="#000000" points="296.437,-122 175.563,-122 175.563,-86 296.437,-86 296.437,-122"/>
<text text-anchor="middle" x="236" y="-99.8" font-family="Times,serif" font-size="14.00" fill="#000000">TrackBarDirective</text>
</g>
<!-- TrackBarDirective&#45;&gt;AppModule -->
<g id="edge9" class="edge">
<title>TrackBarDirective&#45;&gt;AppModule</title>
<path fill="none" stroke="#000000" d="M236,-122.1289C236,-142.5724 236,-173 236,-173 236,-173 688.3268,-173 688.3268,-173"/>
<polygon fill="#000000" stroke="#000000" points="688.3268,-176.5001 698.3268,-173 688.3267,-169.5001 688.3268,-176.5001"/>
</g>
<!-- AppComponent  -->
<g id="node12" class="node">
<title>AppComponent </title>
<polygon fill="#80b1d3" stroke="#000000" points="794.439,-252 685.561,-252 685.561,-216 794.439,-216 794.439,-252"/>
<text text-anchor="middle" x="740" y="-229.8" font-family="Times,serif" font-size="14.00" fill="#000000">AppComponent </text>
</g>
<!-- AppModule&#45;&gt;AppComponent  -->
<g id="edge11" class="edge">
<title>AppModule&#45;&gt;AppComponent </title>
<path fill="none" stroke="#000000" stroke-dasharray="1,5" d="M740,-187.1061C740,-187.1061 740,-205.991 740,-205.991"/>
<polygon fill="#000000" stroke="#000000" points="736.5001,-205.9909 740,-215.991 743.5001,-205.991 736.5001,-205.9909"/>
</g>
<!-- AppRoutingModule -->
<g id="node11" class="node">
<title>AppRoutingModule</title>
<polygon fill="#8dd3c7" stroke="#000000" points="152.2744,-122 149.2744,-126 128.2744,-126 125.2744,-122 23.7256,-122 23.7256,-86 152.2744,-86 152.2744,-122"/>
<text text-anchor="middle" x="88" y="-99.8" font-family="Times,serif" font-size="14.00" fill="#000000">AppRoutingModule</text>
</g>
<!-- AppRoutingModule&#45;&gt;AppModule -->
<g id="edge10" class="edge">
<title>AppRoutingModule&#45;&gt;AppModule</title>
<path fill="none" stroke="#000000" d="M88,-122.0109C88,-144.4852 88,-180 88,-180 88,-180 688.2226,-180 688.2226,-180"/>
<polygon fill="#000000" stroke="#000000" points="688.2227,-183.5001 698.2226,-180 688.2226,-176.5001 688.2227,-183.5001"/>
</g>
</g>
</svg>
