<?xml version="1.0" encoding="UTF-8" standalone="no"?>
<!DOCTYPE svg PUBLIC "-//W3C//DTD SVG 1.1//EN"
 "http://www.w3.org/Graphics/SVG/1.1/DTD/svg11.dtd">
<!-- Generated by graphviz version 2.40.1 (20161225.0304)
 -->
<!-- Title: dependencies Pages: 1 -->
<svg width="1394pt" height="284pt"
 viewBox="0.00 0.00 1394.00 284.00" xmlns="http://www.w3.org/2000/svg" xmlns:xlink="http://www.w3.org/1999/xlink">
<g id="graph0" class="graph" transform="scale(1 1) rotate(0) translate(4 280)">
<title>dependencies</title>
<polygon fill="#ffffff" stroke="transparent" points="-4,4 -4,-280 1390,-280 1390,4 -4,4"/>
<text text-anchor="start" x="672.0091" y="-42.4" font-family="sans-serif" font-weight="bold" font-size="14.00" fill="#000000">Legend</text>
<polygon fill="#ffffb3" stroke="transparent" points="459,-10 459,-30 479,-30 479,-10 459,-10"/>
<text text-anchor="start" x="482.629" y="-15.4" font-family="sans-serif" font-size="14.00" fill="#000000"> &#160;Declarations</text>
<polygon fill="#8dd3c7" stroke="transparent" points="572,-10 572,-30 592,-30 592,-10 572,-10"/>
<text text-anchor="start" x="595.7251" y="-15.4" font-family="sans-serif" font-size="14.00" fill="#000000"> &#160;Module</text>
<polygon fill="#80b1d3" stroke="transparent" points="658,-10 658,-30 678,-30 678,-10 658,-10"/>
<text text-anchor="start" x="681.7812" y="-15.4" font-family="sans-serif" font-size="14.00" fill="#000000"> &#160;Bootstrap</text>
<polygon fill="#fdb462" stroke="transparent" points="755,-10 755,-30 775,-30 775,-10 755,-10"/>
<text text-anchor="start" x="778.6732" y="-15.4" font-family="sans-serif" font-size="14.00" fill="#000000"> &#160;Providers</text>
<polygon fill="#fb8072" stroke="transparent" points="851,-10 851,-30 871,-30 871,-10 851,-10"/>
<text text-anchor="start" x="874.7258" y="-15.4" font-family="sans-serif" font-size="14.00" fill="#000000"> &#160;Exports</text>
<g id="clust1" class="cluster">
<title>cluster_AppModule</title>
<polygon fill="none" stroke="#000000" stroke-dasharray="1,5" points="8,-70 8,-268 1378,-268 1378,-70 8,-70"/>
</g>
<g id="clust2" class="cluster">
<title>cluster_AppModule_declarations</title>
<polygon fill="none" stroke="#000000" points="168,-78 168,-130 1370,-130 1370,-78 168,-78"/>
</g>
<g id="clust11" class="cluster">
<title>cluster_AppModule_imports</title>
<polygon fill="none" stroke="#000000" points="16,-78 16,-130 160,-130 160,-78 16,-78"/>
</g>
<g id="clust13" class="cluster">
<title>cluster_AppModule_bootstrap</title>
<polygon fill="none" stroke="#000000" points="603,-208 603,-260 727,-260 727,-208 603,-208"/>
</g>
<!-- AppComponent -->
<g id="node1" class="node">
<title>AppComponent</title>
<polygon fill="#ffffb3" stroke="#000000" points="1361.9399,-122 1256.0601,-122 1256.0601,-86 1361.9399,-86 1361.9399,-122"/>
<text text-anchor="middle" x="1309" y="-99.8" font-family="Times,serif" font-size="14.00" fill="#000000">AppComponent</text>
</g>
<!-- AppModule -->
<g id="node9" class="node">
<title>AppModule</title>
<polygon fill="#8dd3c7" stroke="#000000" points="706.6571,-187 703.6571,-191 682.6571,-191 679.6571,-187 623.3429,-187 623.3429,-151 706.6571,-151 706.6571,-187"/>
<text text-anchor="middle" x="665" y="-164.8" font-family="Times,serif" font-size="14.00" fill="#000000">AppModule</text>
</g>
<!-- AppComponent&#45;&gt;AppModule -->
<g id="edge1" class="edge">
<title>AppComponent&#45;&gt;AppModule</title>
<path fill="none" stroke="#000000" d="M1309,-122.0109C1309,-144.4852 1309,-180 1309,-180 1309,-180 716.7584,-180 716.7584,-180"/>
<polygon fill="#000000" stroke="#000000" points="716.7585,-176.5001 706.7584,-180 716.7584,-183.5001 716.7585,-176.5001"/>
</g>
<!-- BlurredSurfaceComponent -->
<g id="node2" class="node">
<title>BlurredSurfaceComponent</title>
<polygon fill="#ffffb3" stroke="#000000" points="1238.3431,-122 1071.6569,-122 1071.6569,-86 1238.3431,-86 1238.3431,-122"/>
<text text-anchor="middle" x="1155" y="-99.8" font-family="Times,serif" font-size="14.00" fill="#000000">BlurredSurfaceComponent</text>
</g>
<!-- BlurredSurfaceComponent&#45;&gt;AppModule -->
<g id="edge2" class="edge">
<title>BlurredSurfaceComponent&#45;&gt;AppModule</title>
<path fill="none" stroke="#000000" d="M1155,-122.1289C1155,-142.5724 1155,-173 1155,-173 1155,-173 716.7771,-173 716.7771,-173"/>
<polygon fill="#000000" stroke="#000000" points="716.7772,-169.5001 706.7771,-173 716.7771,-176.5001 716.7772,-169.5001"/>
</g>
<!-- DisplayScoreDirective -->
<g id="node3" class="node">
<title>DisplayScoreDirective</title>
<polygon fill="#ffffb3" stroke="#000000" points="1053.5031,-122 910.4969,-122 910.4969,-86 1053.5031,-86 1053.5031,-122"/>
<text text-anchor="middle" x="982" y="-99.8" font-family="Times,serif" font-size="14.00" fill="#000000">DisplayScoreDirective</text>
</g>
<!-- DisplayScoreDirective&#45;&gt;AppModule -->
<g id="edge3" class="edge">
<title>DisplayScoreDirective&#45;&gt;AppModule</title>
<path fill="none" stroke="#000000" d="M982,-122.2667C982,-140.5552 982,-166 982,-166 982,-166 716.7682,-166 716.7682,-166"/>
<polygon fill="#000000" stroke="#000000" points="716.7682,-162.5001 706.7682,-166 716.7682,-169.5001 716.7682,-162.5001"/>
</g>
<!-- IntroAnimationDirective -->
<g id="node4" class="node">
<title>IntroAnimationDirective</title>
<polygon fill="#ffffb3" stroke="#000000" points="892.6783,-122 737.3217,-122 737.3217,-86 892.6783,-86 892.6783,-122"/>
<text text-anchor="middle" x="815" y="-99.8" font-family="Times,serif" font-size="14.00" fill="#000000">IntroAnimationDirective</text>
</g>
<!-- IntroAnimationDirective&#45;&gt;AppModule -->
<g id="edge4" class="edge">
<title>IntroAnimationDirective&#45;&gt;AppModule</title>
<path fill="none" stroke="#000000" d="M815,-122.0091C815,-138.0494 815,-159 815,-159 815,-159 716.7834,-159 716.7834,-159"/>
<polygon fill="#000000" stroke="#000000" points="716.7834,-155.5001 706.7834,-159 716.7833,-162.5001 716.7834,-155.5001"/>
</g>
<!-- IntroComponent -->
<g id="node5" class="node">
<title>IntroComponent</title>
<polygon fill="#ffffb3" stroke="#000000" points="719.0452,-122 610.9548,-122 610.9548,-86 719.0452,-86 719.0452,-122"/>
<text text-anchor="middle" x="665" y="-99.8" font-family="Times,serif" font-size="14.00" fill="#000000">IntroComponent</text>
</g>
<!-- IntroComponent&#45;&gt;AppModule -->
<g id="edge5" class="edge">
<title>IntroComponent&#45;&gt;AppModule</title>
<path fill="none" stroke="#000000" d="M665,-122.1061C665,-122.1061 665,-140.991 665,-140.991"/>
<polygon fill="#000000" stroke="#000000" points="661.5001,-140.9909 665,-150.991 668.5001,-140.991 661.5001,-140.9909"/>
</g>
<!-- QuestionsComponent -->
<g id="node6" class="node">
<title>QuestionsComponent</title>
<polygon fill="#ffffb3" stroke="#000000" points="592.8244,-122 455.1756,-122 455.1756,-86 592.8244,-86 592.8244,-122"/>
<text text-anchor="middle" x="524" y="-99.8" font-family="Times,serif" font-size="14.00" fill="#000000">QuestionsComponent</text>
</g>
<!-- QuestionsComponent&#45;&gt;AppModule -->
<g id="edge6" class="edge">
<title>QuestionsComponent&#45;&gt;AppModule</title>
<path fill="none" stroke="#000000" d="M524,-122.0091C524,-138.0494 524,-159 524,-159 524,-159 613.0771,-159 613.0771,-159"/>
<polygon fill="#000000" stroke="#000000" points="613.0771,-162.5001 623.0771,-159 613.0771,-155.5001 613.0771,-162.5001"/>
</g>
<!-- ResultsComponent -->
<g id="node7" class="node">
<title>ResultsComponent</title>
<polygon fill="#ffffb3" stroke="#000000" points="437.0548,-122 314.9452,-122 314.9452,-86 437.0548,-86 437.0548,-122"/>
<text text-anchor="middle" x="376" y="-99.8" font-family="Times,serif" font-size="14.00" fill="#000000">ResultsComponent</text>
</g>
<!-- ResultsComponent&#45;&gt;AppModule -->
<g id="edge7" class="edge">
<title>ResultsComponent&#45;&gt;AppModule</title>
<path fill="none" stroke="#000000" d="M376,-122.2667C376,-140.5552 376,-166 376,-166 376,-166 613.2856,-166 613.2856,-166"/>
<polygon fill="#000000" stroke="#000000" points="613.2856,-169.5001 623.2856,-166 613.2855,-162.5001 613.2856,-169.5001"/>
</g>
<!-- TrackBarDirective -->
<g id="node8" class="node">
<title>TrackBarDirective</title>
<polygon fill="#ffffb3" stroke="#000000" points="296.437,-122 175.563,-122 175.563,-86 296.437,-86 296.437,-122"/>
<text text-anchor="middle" x="236" y="-99.8" font-family="Times,serif" font-size="14.00" fill="#000000">TrackBarDirective</text>
</g>
<!-- TrackBarDirective&#45;&gt;AppModule -->
<g id="edge8" class="edge">
<title>TrackBarDirective&#45;&gt;AppModule</title>
<path fill="none" stroke="#000000" d="M236,-122.1289C236,-142.5724 236,-173 236,-173 236,-173 613.0846,-173 613.0846,-173"/>
<polygon fill="#000000" stroke="#000000" points="613.0846,-176.5001 623.0846,-173 613.0845,-169.5001 613.0846,-176.5001"/>
</g>
<!-- AppComponent  -->
<g id="node11" class="node">
<title>AppComponent </title>
<polygon fill="#80b1d3" stroke="#000000" points="719.439,-252 610.561,-252 610.561,-216 719.439,-216 719.439,-252"/>
<text text-anchor="middle" x="665" y="-229.8" font-family="Times,serif" font-size="14.00" fill="#000000">AppComponent </text>
</g>
<!-- AppModule&#45;&gt;AppComponent  -->
<g id="edge10" class="edge">
<title>AppModule&#45;&gt;AppComponent </title>
<path fill="none" stroke="#000000" stroke-dasharray="1,5" d="M665,-187.1061C665,-187.1061 665,-205.991 665,-205.991"/>
<polygon fill="#000000" stroke="#000000" points="661.5001,-205.9909 665,-215.991 668.5001,-205.991 661.5001,-205.9909"/>
</g>
<!-- AppRoutingModule -->
<g id="node10" class="node">
<title>AppRoutingModule</title>
<polygon fill="#8dd3c7" stroke="#000000" points="152.2744,-122 149.2744,-126 128.2744,-126 125.2744,-122 23.7256,-122 23.7256,-86 152.2744,-86 152.2744,-122"/>
<text text-anchor="middle" x="88" y="-99.8" font-family="Times,serif" font-size="14.00" fill="#000000">AppRoutingModule</text>
</g>
<!-- AppRoutingModule&#45;&gt;AppModule -->
<g id="edge9" class="edge">
<title>AppRoutingModule&#45;&gt;AppModule</title>
<path fill="none" stroke="#000000" d="M88,-122.0109C88,-144.4852 88,-180 88,-180 88,-180 613.0388,-180 613.0388,-180"/>
<polygon fill="#000000" stroke="#000000" points="613.0388,-183.5001 623.0388,-180 613.0388,-176.5001 613.0388,-183.5001"/>
</g>
</g>
</svg>
