<svg aria-hidden="true" style="position: absolute; width: 0; height: 0; overflow: hidden;" version="1.1" xmlns="http://www.w3.org/2000/svg" xmlns:xlink="http://www.w3.org/1999/xlink">
<defs>
<symbol id="icon-zipper" viewBox="0 0 32 32">
<path d="M25.313 4.828c0.085-0.338-0.105-0.684-0.436-0.794l-3.544-1.182v-2.186c0-0.368-0.298-0.667-0.667-0.667h-9.333c-0.368 0-0.667 0.298-0.667 0.667v2.186l-3.544 1.182c-0.33 0.11-0.52 0.456-0.436 0.794l2.633 10.531-2.653 13.308c0 2.188 4.695 3.333 9.333 3.333s9.333-1.145 9.32-3.464l-2.637-13.187 2.63-10.521zM16 28c-2.168 0-3.92-0.283-5.016-0.593l0.948-4.74h8.135l0.948 4.74c-1.096 0.311-2.848 0.593-5.016 0.593z"></path>
<path d="M8.13 5.104l3.415-1.139c0.272-0.091 0.456-0.345 0.456-0.632v-2h8v2c0 0.287 0.184 0.542 0.456 0.632l3.415 1.139-1.798 7.192-0.752-3.761c-0.063-0.311-0.336-0.536-0.654-0.536h-2v-1.333c0-1.471-1.196-2.667-2.667-2.667s-2.667 1.196-2.667 2.667v1.333h-2c-0.318 0-0.591 0.225-0.654 0.536l-0.751 3.766-1.799-7.198z"></path>
<path d="M9.333 6.136l3.415-1.139c0.272-0.090 0.456-0.345 0.456-0.632v-2h6.796v-1.032h-8v2c0 0.287-0.184 0.542-0.456 0.632l-3.415 1.139 1.799 7.198 0.42-2.105-1.015-4.061z"></path>
<path d="M17.333 6.667v4c0 0.735-0.598 1.333-1.333 1.333s-1.333-0.598-1.333-1.333v-4c0-0.735 0.598-1.333 1.333-1.333s1.333 0.598 1.333 1.333z"></path>
<path d="M16.544 5.456c0.076 0.167 0.122 0.349 0.122 0.544v4c0 0.735-0.598 1.333-1.333 1.333-0.195 0-0.377-0.047-0.544-0.122 0.209 0.463 0.671 0.789 1.211 0.789 0.735 0 1.333-0.598 1.333-1.333v-4c0-0.54-0.326-1.002-0.789-1.211z"></path>
<path d="M20.12 9.333h-1.454v1.333c0 1.471-1.196 2.667-2.667 2.667s-2.667-1.196-2.667-2.667v-1.333h-1.454l-3.893 19.464c0.013 0.574 3.050 1.869 8.013 1.869s8-1.295 8-2l-3.88-19.333zM22.018 28.483c-0.538 0.2-2.563 0.85-6.018 0.85s-5.479-0.65-6.018-0.85c-0.307-0.114-0.486-0.434-0.422-0.756l1.172-5.858c0.063-0.311 0.336-0.536 0.654-0.536h9.228c0.318 0 0.591 0.225 0.654 0.536l1.172 5.858c0.064 0.322-0.115 0.642-0.422 0.756z"></path>
<path d="M9.778 28.362c-0.177-0.153-0.266-0.394-0.217-0.635l1.011-5.056 1.861-13.338h-0.554l-3.893 19.464c0.006 0.244 0.584 0.616 1.595 0.965l0.195-1.4z"></path>
<path d="M20.134 9.333h-1.333l3.88 19.333c0 0.672-2.78 1.866-7.335 1.979 0.226 0.006 0.434 0.021 0.668 0.021 4.963 0 8-1.295 8-2l-3.88-19.333z"></path>
<path d="M15.999 29.333l-0.006-0 0.005 0z"></path>
<path d="M15.994 13.333l0.005 0.001 0.001-0z"></path>
<path d="M21.32 8.536l0.752 3.761 0.66-2.639-4.713-4.713c0.398 0.466 0.648 1.063 0.648 1.722v1.333h2c0.318 0 0.591 0.225 0.654 0.536z"></path>
<path d="M25.313 4.828c0.085-0.338-0.105-0.684-0.436-0.794l-3.544-1.182v-2.186c0-0.368-0.298-0.667-0.667-0.667h-9.333c-0.368 0-0.667 0.298-0.667 0.667v2.186l-3.544 1.182c-0.33 0.11-0.52 0.456-0.436 0.794l2.633 10.531-2.653 13.308c0 2.188 4.695 3.333 9.333 3.333s9.333-1.145 9.32-3.464l-2.637-13.187 2.63-10.521zM16 28c-2.168 0-3.92-0.283-5.016-0.593l0.948-4.74h8.135l0.948 4.74c-1.096 0.311-2.848 0.593-5.016 0.593z"></path>
</symbol>
<symbol id="icon-x" viewBox="0 0 32 32">
<path d="M30 24.398l-8.406-8.398 8.406-8.398-5.602-5.602-8.398 8.402-8.402-8.402-5.598 5.602 8.398 8.398-8.398 8.398 5.598 5.602 8.402-8.402 8.398 8.402z"></path>
</symbol>
<symbol id="icon-arrow-left" viewBox="0 0 32 32">
<path d="M12.586 27.414l-10-10c-0.781-0.781-0.781-2.047 0-2.828l10-10c0.781-0.781 2.047-0.781 2.828 0s0.781 2.047 0 2.828l-6.586 6.586h19.172c1.105 0 2 0.895 2 2s-0.895 2-2 2h-19.172l6.586 6.586c0.39 0.39 0.586 0.902 0.586 1.414s-0.195 1.024-0.586 1.414c-0.781 0.781-2.047 0.781-2.828 0z"></path>
</symbol>
<symbol id="icon-checkmark" viewBox="0 0 32 32">
<path d="M27 4l-15 15-7-7-5 5 12 12 20-20z"></path>
</symbol>
</defs>
</svg>
