<?xml version="1.0" encoding="iso-8859-1"?>
<!-- Generator: Adobe Illustrator 19.0.0, SVG Export Plug-In . SVG Version: 6.00 Build 0)  -->
<svg version="1.1" id="Capa_1" xmlns="http://www.w3.org/2000/svg" xmlns:xlink="http://www.w3.org/1999/xlink" x="0px" y="0px"
	 viewBox="0 0 512 512" style="enable-background:new 0 0 512 512;" xml:space="preserve">
<path style="fill:#303C42;" d="M405.011,77.25c1.354-5.406-1.688-10.938-6.969-12.698l-56.708-18.906V10.667
	C341.334,4.771,336.563,0,330.668,0H181.334c-5.896,0-10.667,4.771-10.667,10.667v34.979l-56.708,18.906
	c-5.281,1.76-8.323,7.292-6.969,12.698l42.122,168.492l-42.445,212.924c0,35.01,75.125,53.333,149.333,53.333
	s149.333-18.323,149.125-55.427l-42.198-210.99L405.011,77.25z M256.001,448c-34.687,0-62.719-4.521-80.25-9.49l15.167-75.844
	h130.167l15.167,75.844C318.72,443.479,290.688,448,256.001,448z"/>
<path style="fill:#BDBDBD;" d="M130.074,81.667l54.635-18.219c4.354-1.448,7.292-5.521,7.292-10.115v-32h128v32
	c0,4.594,2.938,8.667,7.292,10.115l54.635,18.219L353.16,196.741l-12.034-60.168c-1-4.979-5.375-8.573-10.458-8.573h-32v-21.333
	c0-23.531-19.135-42.667-42.667-42.667s-42.667,19.135-42.667,42.667V128h-32c-5.083,0-9.458,3.594-10.458,8.573l-12.012,60.255
	L130.074,81.667z"/>
<path style="opacity:0.2;fill:#FFFFFF;enable-background:new    ;" d="M149.334,98.172l54.635-18.219
	c4.354-1.448,7.292-5.521,7.292-10.115v-32h108.74V21.333h-128v32c0,4.594-2.938,8.667-7.292,10.115l-54.635,18.219l28.79,115.161
	l6.714-33.68L149.334,98.172z"/>
<path style="fill:#BDBDBD;" d="M277.334,106.667v64c0,11.76-9.573,21.333-21.333,21.333c-11.76,0-21.333-9.573-21.333-21.333v-64
	c0-11.76,9.573-21.333,21.333-21.333C267.761,85.333,277.334,94.906,277.334,106.667z"/>
<path style="opacity:0.1;fill:#010101;enable-background:new    ;" d="M264.709,87.292c1.21,2.674,1.958,5.589,1.958,8.708v64
	c0,11.76-9.573,21.333-21.333,21.333c-3.12,0-6.034-0.749-8.708-1.958C239.975,186.781,247.36,192,256.001,192
	c11.76,0,21.333-9.573,21.333-21.333v-64C277.334,98.026,272.115,90.641,264.709,87.292z"/>
<path style="fill:#BDBDBD;" d="M321.928,149.333h-23.26v21.333c0,23.531-19.135,42.667-42.667,42.667s-42.667-19.135-42.667-42.667
	v-21.333h-23.26L127.793,460.76c0.208,9.188,48.802,29.906,128.208,29.906s128-20.719,128-32L321.928,149.333z M352.282,455.729
	c-8.615,3.198-41.01,13.604-96.281,13.604s-87.667-10.406-96.281-13.604c-4.917-1.823-7.781-6.948-6.75-12.094l18.75-93.729
	c1-4.979,5.375-8.573,10.458-8.573h147.646c5.083,0,9.458,3.594,10.458,8.573l18.75,93.729
	C360.063,448.781,357.199,453.906,352.282,455.729z"/>
<path style="opacity:0.2;fill:#FFFFFF;enable-background:new    ;" d="M156.445,453.793c-2.831-2.451-4.249-6.298-3.475-10.158
	l16.184-80.9l29.783-213.402h-8.862L127.793,460.76c0.089,3.9,9.349,9.849,25.526,15.436L156.445,453.793z"/>
<path style="opacity:0.1;fill:#010101;enable-background:new    ;" d="M322.136,149.333h-21.333l62.073,309.333
	c0,10.751-44.482,29.863-117.357,31.656c3.611,0.089,6.94,0.344,10.69,0.344c79.406,0,128-20.719,128-32L322.136,149.333z"/>
<g>
	<polygon style="opacity:0.2;fill:#FFFFFF;enable-background:new    ;" points="255.992,469.333 255.899,469.331 255.984,469.333 	
		"/>
	<polygon style="opacity:0.2;fill:#FFFFFF;enable-background:new    ;" points="255.899,213.323 255.984,213.333 255.992,213.332 	
		"/>
</g>
<linearGradient id="SVGID_1_" gradientUnits="userSpaceOnUse" x1="-33.8061" y1="642.1591" x2="-29.5302" y2="637.8802" gradientTransform="matrix(21.3333 0 0 -21.3333 996.3335 13791.667)">
	<stop  offset="0" style="stop-color:#010101;stop-opacity:0.1"/>
	<stop  offset="1" style="stop-color:#010101;stop-opacity:0"/>
</linearGradient>
<path style="fill:url(#SVGID_1_);" d="M341.126,136.573l12.034,60.168l10.555-42.221l-75.408-75.408
	c6.368,7.456,10.361,17.001,10.361,27.555V128h32C335.751,128,340.126,131.594,341.126,136.573z"/>
<linearGradient id="SVGID_2_" gradientUnits="userSpaceOnUse" x1="-43.7486" y1="638.7087" x2="-25.2491" y2="630.0814" gradientTransform="matrix(21.3333 0 0 -21.3333 996.3335 13791.667)">
	<stop  offset="0" style="stop-color:#FFFFFF;stop-opacity:0.2"/>
	<stop  offset="1" style="stop-color:#FFFFFF;stop-opacity:0"/>
</linearGradient>
<path style="fill:url(#SVGID_2_);" d="M405.011,77.25c1.354-5.406-1.688-10.938-6.969-12.698l-56.708-18.906V10.667
	C341.334,4.771,336.563,0,330.668,0H181.334c-5.896,0-10.667,4.771-10.667,10.667v34.979l-56.708,18.906
	c-5.281,1.76-8.323,7.292-6.969,12.698l42.122,168.492l-42.445,212.924c0,35.01,75.125,53.333,149.333,53.333
	s149.333-18.323,149.125-55.427l-42.198-210.99L405.011,77.25z M256.001,448c-34.687,0-62.719-4.521-80.25-9.49l15.167-75.844
	h130.167l15.167,75.844C318.72,443.479,290.688,448,256.001,448z"/>
<g>
</g>
<g>
</g>
<g>
</g>
<g>
</g>
<g>
</g>
<g>
</g>
<g>
</g>
<g>
</g>
<g>
</g>
<g>
</g>
<g>
</g>
<g>
</g>
<g>
</g>
<g>
</g>
<g>
</g>
</svg>
